<svg xmlns="http://www.w3.org/2000/svg" width="720" height="480" viewBox="0 0 720 480" font-family="Arial, Helvetica, sans-serif">
<rect x="0" y="0" width="720" height="480" fill="#ffffff"/>
<g><rect x="33.176" y="5.48" width="681.344" height="443.02" fill="#ebebeb"/></g>
<g><line x1="108.797" y1="5.48" x2="108.797" y2="448.5" fill="none" stroke="#ffffff" stroke-width="1.07" stroke-linecap="butt"/><line x1="263.301" y1="5.48" x2="263.301" y2="448.5" fill="none" stroke="#ffffff" stroke-width="1.07" stroke-linecap="butt"/><line x1="417.804" y1="5.48" x2="417.804" y2="448.5" fill="none" stroke="#ffffff" stroke-width="1.07" stroke-linecap="butt"/><line x1="572.307" y1="5.48" x2="572.307" y2="448.5" fill="none" stroke="#ffffff" stroke-width="1.07" stroke-linecap="butt"/><line x1="33.176" y1="438.073" x2="714.52" y2="438.073" fill="none" stroke="#ffffff" stroke-width="1.07" stroke-linecap="butt"/><line x1="33.176" y1="327.876" x2="714.52" y2="327.876" fill="none" stroke="#ffffff" stroke-width="1.07" stroke-linecap="butt"/><line x1="33.176" y1="234.975" x2="714.52" y2="234.975" fill="none" stroke="#ffffff" stroke-width="1.07" stroke-linecap="butt"/><line x1="33.176" y1="153.128" x2="714.52" y2="153.128" fill="none" stroke="#ffffff" stroke-width="1.07" stroke-linecap="butt"/><line x1="33.176" y1="79.133" x2="714.52" y2="79.133" fill="none" stroke="#ffffff" stroke-width="1.07" stroke-linecap="butt"/><line x1="33.176" y1="11.087" x2="714.52" y2="11.087" fill="none" stroke="#ffffff" stroke-width="1.07" stroke-linecap="butt"/><line x1="186.049" y1="5.48" x2="186.049" y2="448.5" fill="none" stroke="#ffffff" stroke-width="0.535" stroke-linecap="butt"/><line x1="340.552" y1="5.48" x2="340.552" y2="448.5" fill="none" stroke="#ffffff" stroke-width="0.535" stroke-linecap="butt"/><line x1="495.056" y1="5.48" x2="495.056" y2="448.5" fill="none" stroke="#ffffff" stroke-width="0.535" stroke-linecap="butt"/><line x1="649.559" y1="5.48" x2="649.559" y2="448.5" fill="none" stroke="#ffffff" stroke-width="0.535" stroke-linecap="butt"/><line x1="33.176" y1="380.198" x2="714.52" y2="380.198" fill="none" stroke="#ffffff" stroke-width="0.535" stroke-linecap="butt"/><line x1="33.176" y1="279.76" x2="714.52" y2="279.76" fill="none" stroke="#ffffff" stroke-width="0.535" stroke-linecap="butt"/><line x1="33.176" y1="192.912" x2="714.52" y2="192.912" fill="none" stroke="#ffffff" stroke-width="0.535" stroke-linecap="butt"/><line x1="33.176" y1="115.289" x2="714.52" y2="115.289" fill="none" stroke="#ffffff" stroke-width="0.535" stroke-linecap="butt"/><line x1="33.176" y1="44.455" x2="714.52" y2="44.455" fill="none" stroke="#ffffff" stroke-width="0.535" stroke-linecap="butt"/></g>
<defs><clipPath id="clip2"><rect x="33.176" y="5.48" width="681.344" height="443.02"/></clipPath></defs><g clip-path="url(#clip2)"><circle cx="201.499" cy="217.851" r="1.955" fill="#000000"/><circle cx="201.499" cy="217.851" r="1.955" fill="#000000"/><circle cx="121.158" cy="188.026" r="1.955" fill="#000000"/><circle cx="352.913" cy="211.116" r="1.955" fill="#000000"/><circle cx="510.506" cy="257.89" r="1.955" fill="#000000"/><circle cx="301.926" cy="268.735" r="1.955" fill="#000000"/><circle cx="510.506" cy="342.055" r="1.955" fill="#000000"/><circle cx="180.95" cy="162.488" r="1.955" fill="#000000"/><circle cx="171.835" cy="188.026" r="1.955" fill="#000000"/><circle cx="213.242" cy="248.985" r="1.955" fill="#000000"/><circle cx="213.242" cy="274.224" r="1.955" fill="#000000"/><circle cx="380.414" cy="300.477" r="1.955" fill="#000000"/><circle cx="380.414" cy="283.477" r="1.955" fill="#000000"/><circle cx="380.414" cy="323.886" r="1.955" fill="#000000"/><circle cx="683.55" cy="428.363" r="1.955" fill="#000000"/><circle cx="665.009" cy="428.363" r="1.955" fill="#000000"/><circle cx="634.109" cy="333.911" r="1.955" fill="#000000"/><circle cx="75.888" cy="45.816" r="1.955" fill="#000000"/><circle cx="71.253" cy="73.49" r="1.955" fill="#000000"/><circle cx="64.146" cy="25.617" r="1.955" fill="#000000"/><circle cx="139.852" cy="209.442" r="1.955" fill="#000000"/><circle cx="445.615" cy="317.949" r="1.955" fill="#000000"/><circle cx="423.984" cy="323.886" r="1.955" fill="#000000"/><circle cx="495.056" cy="362.928" r="1.955" fill="#000000"/><circle cx="572.307" cy="248.985" r="1.955" fill="#000000"/><circle cx="76.352" cy="118.251" r="1.955" fill="#000000"/><circle cx="140.161" cy="137.775" r="1.955" fill="#000000"/><circle cx="101.227" cy="73.49" r="1.955" fill="#000000"/><circle cx="496.601" cy="312.07" r="1.955" fill="#000000"/><circle cx="178.324" cy="240.196" r="1.955" fill="#000000"/><circle cx="419.349" cy="327.876" r="1.955" fill="#000000"/><circle cx="141.243" cy="211.116" r="1.955" fill="#000000"/></g>
<g><line x1="108.797" y1="448.5" x2="108.797" y2="451.25" fill="none" stroke="#333333" stroke-width="1.07" stroke-linecap="butt"/><text x="108.797" y="459.738" fill="#4d4d4d" font-size="8.8" textLength="14.678" lengthAdjust="spacingAndGlyphs" text-anchor="middle">100</text><line x1="263.301" y1="448.5" x2="263.301" y2="451.25" fill="none" stroke="#333333" stroke-width="1.07" stroke-linecap="butt"/><text x="263.301" y="459.738" fill="#4d4d4d" font-size="8.8" textLength="14.678" lengthAdjust="spacingAndGlyphs" text-anchor="middle">200</text><line x1="417.804" y1="448.5" x2="417.804" y2="451.25" fill="none" stroke="#333333" stroke-width="1.07" stroke-linecap="butt"/><text x="417.804" y="459.738" fill="#4d4d4d" font-size="8.8" textLength="14.678" lengthAdjust="spacingAndGlyphs" text-anchor="middle">300</text><line x1="572.307" y1="448.5" x2="572.307" y2="451.25" fill="none" stroke="#333333" stroke-width="1.07" stroke-linecap="butt"/><text x="572.307" y="459.738" fill="#4d4d4d" font-size="8.8" textLength="14.678" lengthAdjust="spacingAndGlyphs" text-anchor="middle">400</text><line x1="30.426" y1="438.073" x2="33.176" y2="438.073" fill="none" stroke="#333333" stroke-width="1.07" stroke-linecap="butt"/><text x="28.226" y="441.223" fill="#4d4d4d" font-size="8.8" textLength="9.786" lengthAdjust="spacingAndGlyphs" text-anchor="end">10</text><line x1="30.426" y1="327.876" x2="33.176" y2="327.876" fill="none" stroke="#333333" stroke-width="1.07" stroke-linecap="butt"/><text x="28.226" y="331.026" fill="#4d4d4d" font-size="8.8" textLength="9.786" lengthAdjust="spacingAndGlyphs" text-anchor="end">15</text><line x1="30.426" y1="234.975" x2="33.176" y2="234.975" fill="none" stroke="#333333" stroke-width="1.07" stroke-linecap="butt"/><text x="28.226" y="238.126" fill="#4d4d4d" font-size="8.8" textLength="9.786" lengthAdjust="spacingAndGlyphs" text-anchor="end">20</text><line x1="30.426" y1="153.128" x2="33.176" y2="153.128" fill="none" stroke="#333333" stroke-width="1.07" stroke-linecap="butt"/><text x="28.226" y="156.279" fill="#4d4d4d" font-size="8.8" textLength="9.786" lengthAdjust="spacingAndGlyphs" text-anchor="end">25</text><line x1="30.426" y1="79.133" x2="33.176" y2="79.133" fill="none" stroke="#333333" stroke-width="1.07" stroke-linecap="butt"/><text x="28.226" y="82.283" fill="#4d4d4d" font-size="8.8" textLength="9.786" lengthAdjust="spacingAndGlyphs" text-anchor="end">30</text><line x1="30.426" y1="11.087" x2="33.176" y2="11.087" fill="none" stroke="#333333" stroke-width="1.07" stroke-linecap="butt"/><text x="28.226" y="14.238" fill="#4d4d4d" font-size="8.8" textLength="9.786" lengthAdjust="spacingAndGlyphs" text-anchor="end">35</text></g>
<g><text x="373.848" y="472.2" fill="#4d4d4d" font-size="11" textLength="20.174" lengthAdjust="spacingAndGlyphs" text-anchor="middle">disp</text><text x="13.36" y="226.99" fill="#4d4d4d" font-size="11" textLength="21.395" lengthAdjust="spacingAndGlyphs" text-anchor="middle" transform="rotate(-90, 13.36, 226.99)">mpg</text></g>
</svg>
