<svg xmlns="http://www.w3.org/2000/svg" width="720" height="480" viewBox="0 0 720 480" font-family="Arial, Helvetica, sans-serif">
<rect x="0" y="0" width="720" height="480" fill="#ffffff"/>
<g><rect x="33.176" y="5.48" width="681.344" height="443.02" fill="#ebebeb"/></g>
<g><line x1="108.797" y1="5.48" x2="108.797" y2="448.5" fill="none" stroke="#ffffff" stroke-width="1.07" stroke-linecap="butt"/><line x1="263.301" y1="5.48" x2="263.301" y2="448.5" fill="none" stroke="#ffffff" stroke-width="1.07" stroke-linecap="butt"/><line x1="417.804" y1="5.48" x2="417.804" y2="448.5" fill="none" stroke="#ffffff" stroke-width="1.07" stroke-linecap="butt"/><line x1="572.307" y1="5.48" x2="572.307" y2="448.5" fill="none" stroke="#ffffff" stroke-width="1.07" stroke-linecap="butt"/><line x1="33.176" y1="435.218" x2="714.52" y2="435.218" fill="none" stroke="#ffffff" stroke-width="1.07" stroke-linecap="butt"/><line x1="33.176" y1="349.527" x2="714.52" y2="349.527" fill="none" stroke="#ffffff" stroke-width="1.07" stroke-linecap="butt"/><line x1="33.176" y1="263.837" x2="714.52" y2="263.837" fill="none" stroke="#ffffff" stroke-width="1.07" stroke-linecap="butt"/><line x1="33.176" y1="178.146" x2="714.52" y2="178.146" fill="none" stroke="#ffffff" stroke-width="1.07" stroke-linecap="butt"/><line x1="33.176" y1="92.456" x2="714.52" y2="92.456" fill="none" stroke="#ffffff" stroke-width="1.07" stroke-linecap="butt"/><line x1="33.176" y1="6.765" x2="714.52" y2="6.765" fill="none" stroke="#ffffff" stroke-width="1.07" stroke-linecap="butt"/><line x1="186.049" y1="5.48" x2="186.049" y2="448.5" fill="none" stroke="#ffffff" stroke-width="0.535" stroke-linecap="butt"/><line x1="340.552" y1="5.48" x2="340.552" y2="448.5" fill="none" stroke="#ffffff" stroke-width="0.535" stroke-linecap="butt"/><line x1="495.056" y1="5.48" x2="495.056" y2="448.5" fill="none" stroke="#ffffff" stroke-width="0.535" stroke-linecap="butt"/><line x1="649.559" y1="5.48" x2="649.559" y2="448.5" fill="none" stroke="#ffffff" stroke-width="0.535" stroke-linecap="butt"/><line x1="33.176" y1="392.373" x2="714.52" y2="392.373" fill="none" stroke="#ffffff" stroke-width="0.535" stroke-linecap="butt"/><line x1="33.176" y1="306.682" x2="714.52" y2="306.682" fill="none" stroke="#ffffff" stroke-width="0.535" stroke-linecap="butt"/><line x1="33.176" y1="220.992" x2="714.52" y2="220.992" fill="none" stroke="#ffffff" stroke-width="0.535" stroke-linecap="butt"/><line x1="33.176" y1="135.301" x2="714.52" y2="135.301" fill="none" stroke="#ffffff" stroke-width="0.535" stroke-linecap="butt"/><line x1="33.176" y1="49.611" x2="714.52" y2="49.611" fill="none" stroke="#ffffff" stroke-width="0.535" stroke-linecap="butt"/></g>
<defs><clipPath id="clip2"><rect x="33.176" y="5.48" width="681.344" height="443.02"/></clipPath></defs><g clip-path="url(#clip2)"><circle cx="201.499" cy="246.699" r="1.955" fill="#000000"/><circle cx="201.499" cy="246.699" r="1.955" fill="#000000"/><circle cx="121.158" cy="215.85" r="1.955" fill="#000000"/><circle cx="352.913" cy="239.844" r="1.955" fill="#000000"/><circle cx="510.506" cy="286.116" r="1.955" fill="#000000"/><circle cx="301.926" cy="296.399" r="1.955" fill="#000000"/><circle cx="510.506" cy="361.524" r="1.955" fill="#000000"/><circle cx="180.95" cy="188.429" r="1.955" fill="#000000"/><circle cx="171.835" cy="215.85" r="1.955" fill="#000000"/><circle cx="213.242" cy="277.547" r="1.955" fill="#000000"/><circle cx="213.242" cy="301.541" r="1.955" fill="#000000"/><circle cx="380.414" cy="325.534" r="1.955" fill="#000000"/><circle cx="380.414" cy="310.11" r="1.955" fill="#000000"/><circle cx="380.414" cy="346.1" r="1.955" fill="#000000"/><circle cx="683.55" cy="428.363" r="1.955" fill="#000000"/><circle cx="665.009" cy="428.363" r="1.955" fill="#000000"/><circle cx="634.109" cy="354.669" r="1.955" fill="#000000"/><circle cx="75.888" cy="51.324" r="1.955" fill="#000000"/><circle cx="71.253" cy="85.601" r="1.955" fill="#000000"/><circle cx="64.146" cy="25.617" r="1.955" fill="#000000"/><circle cx="139.852" cy="238.13" r="1.955" fill="#000000"/><circle cx="445.615" cy="340.958" r="1.955" fill="#000000"/><circle cx="423.984" cy="346.1" r="1.955" fill="#000000"/><circle cx="495.056" cy="378.662" r="1.955" fill="#000000"/><circle cx="572.307" cy="277.547" r="1.955" fill="#000000"/><circle cx="76.352" cy="138.729" r="1.955" fill="#000000"/><circle cx="140.161" cy="161.008" r="1.955" fill="#000000"/><circle cx="101.227" cy="85.601" r="1.955" fill="#000000"/><circle cx="496.601" cy="335.817" r="1.955" fill="#000000"/><circle cx="178.324" cy="268.978" r="1.955" fill="#000000"/><circle cx="419.349" cy="349.527" r="1.955" fill="#000000"/><circle cx="141.243" cy="239.844" r="1.955" fill="#000000"/><line x1="33.176" y1="262.284" x2="714.52" y2="262.284" fill="none" stroke="#ff0000" stroke-width="1.07" stroke-linecap="butt"/></g>
<g><line x1="108.797" y1="448.5" x2="108.797" y2="451.25" fill="none" stroke="#333333" stroke-width="1.07" stroke-linecap="butt"/><text x="108.797" y="459.738" fill="#4d4d4d" font-size="8.8" textLength="14.678" lengthAdjust="spacingAndGlyphs" text-anchor="middle">100</text><line x1="263.301" y1="448.5" x2="263.301" y2="451.25" fill="none" stroke="#333333" stroke-width="1.07" stroke-linecap="butt"/><text x="263.301" y="459.738" fill="#4d4d4d" font-size="8.8" textLength="14.678" lengthAdjust="spacingAndGlyphs" text-anchor="middle">200</text><line x1="417.804" y1="448.5" x2="417.804" y2="451.25" fill="none" stroke="#333333" stroke-width="1.07" stroke-linecap="butt"/><text x="417.804" y="459.738" fill="#4d4d4d" font-size="8.8" textLength="14.678" lengthAdjust="spacingAndGlyphs" text-anchor="middle">300</text><line x1="572.307" y1="448.5" x2="572.307" y2="451.25" fill="none" stroke="#333333" stroke-width="1.07" stroke-linecap="butt"/><text x="572.307" y="459.738" fill="#4d4d4d" font-size="8.8" textLength="14.678" lengthAdjust="spacingAndGlyphs" text-anchor="middle">400</text><line x1="30.426" y1="435.218" x2="33.176" y2="435.218" fill="none" stroke="#333333" stroke-width="1.07" stroke-linecap="butt"/><text x="28.226" y="438.368" fill="#4d4d4d" font-size="8.8" textLength="9.786" lengthAdjust="spacingAndGlyphs" text-anchor="end">10</text><line x1="30.426" y1="349.527" x2="33.176" y2="349.527" fill="none" stroke="#333333" stroke-width="1.07" stroke-linecap="butt"/><text x="28.226" y="352.678" fill="#4d4d4d" font-size="8.8" textLength="9.786" lengthAdjust="spacingAndGlyphs" text-anchor="end">15</text><line x1="30.426" y1="263.837" x2="33.176" y2="263.837" fill="none" stroke="#333333" stroke-width="1.07" stroke-linecap="butt"/><text x="28.226" y="266.987" fill="#4d4d4d" font-size="8.8" textLength="9.786" lengthAdjust="spacingAndGlyphs" text-anchor="end">20</text><line x1="30.426" y1="178.146" x2="33.176" y2="178.146" fill="none" stroke="#333333" stroke-width="1.07" stroke-linecap="butt"/><text x="28.226" y="181.297" fill="#4d4d4d" font-size="8.8" textLength="9.786" lengthAdjust="spacingAndGlyphs" text-anchor="end">25</text><line x1="30.426" y1="92.456" x2="33.176" y2="92.456" fill="none" stroke="#333333" stroke-width="1.07" stroke-linecap="butt"/><text x="28.226" y="95.606" fill="#4d4d4d" font-size="8.8" textLength="9.786" lengthAdjust="spacingAndGlyphs" text-anchor="end">30</text><line x1="30.426" y1="6.765" x2="33.176" y2="6.765" fill="none" stroke="#333333" stroke-width="1.07" stroke-linecap="butt"/><text x="28.226" y="9.916" fill="#4d4d4d" font-size="8.8" textLength="9.786" lengthAdjust="spacingAndGlyphs" text-anchor="end">35</text></g>
<g><text x="373.848" y="472.2" fill="#4d4d4d" font-size="11" textLength="20.174" lengthAdjust="spacingAndGlyphs" text-anchor="middle">disp</text><text x="13.36" y="226.99" fill="#4d4d4d" font-size="11" textLength="21.395" lengthAdjust="spacingAndGlyphs" text-anchor="middle" transform="rotate(-90, 13.36, 226.99)">mpg</text></g>
</svg>
