<svg xmlns="http://www.w3.org/2000/svg" width="720" height="480" viewBox="0 0 720 480" font-family="Arial, Helvetica, sans-serif">
<rect x="0" y="0" width="720" height="480" fill="#ffffff"/>
<g><rect x="15.223" y="5.48" width="699.297" height="443.02" fill="#ebebeb"/></g>
<g><line x1="115.122" y1="5.48" x2="115.122" y2="448.5" fill="none" stroke="#ffffff" stroke-width="1.07" stroke-linecap="butt"/><line x1="281.622" y1="5.48" x2="281.622" y2="448.5" fill="none" stroke="#ffffff" stroke-width="1.07" stroke-linecap="butt"/><line x1="448.121" y1="5.48" x2="448.121" y2="448.5" fill="none" stroke="#ffffff" stroke-width="1.07" stroke-linecap="butt"/><line x1="614.62" y1="5.48" x2="614.62" y2="448.5" fill="none" stroke="#ffffff" stroke-width="1.07" stroke-linecap="butt"/><line x1="15.223" y1="347.814" x2="714.52" y2="347.814" fill="none" stroke="#ffffff" stroke-width="1.07" stroke-linecap="butt"/><line x1="15.223" y1="186.715" x2="714.52" y2="186.715" fill="none" stroke="#ffffff" stroke-width="1.07" stroke-linecap="butt"/><line x1="15.223" y1="25.617" x2="714.52" y2="25.617" fill="none" stroke="#ffffff" stroke-width="1.07" stroke-linecap="butt"/><line x1="15.223" y1="267.265" x2="714.52" y2="267.265" fill="none" stroke="#ffffff" stroke-width="0.535" stroke-linecap="butt"/><line x1="15.223" y1="106.166" x2="714.52" y2="106.166" fill="none" stroke="#ffffff" stroke-width="0.535" stroke-linecap="butt"/></g>
<defs><clipPath id="clip2"><rect x="15.223" y="5.48" width="699.297" height="443.02"/></clipPath></defs><g clip-path="url(#clip2)"><line x1="115.122" y1="428.363" x2="115.122" y2="267.265" fill="none" stroke="#000000" stroke-width="1.07" stroke-linecap="butt"/><line x1="40.198" y1="428.363" x2="190.047" y2="428.363" fill="none" stroke="#000000" stroke-width="1.07" stroke-linecap="butt"/><line x1="40.198" y1="267.265" x2="190.047" y2="267.265" fill="none" stroke="#000000" stroke-width="1.07" stroke-linecap="butt"/><line x1="281.622" y1="347.814" x2="281.622" y2="186.715" fill="none" stroke="#000000" stroke-width="1.07" stroke-linecap="butt"/><line x1="206.697" y1="347.814" x2="356.546" y2="347.814" fill="none" stroke="#000000" stroke-width="1.07" stroke-linecap="butt"/><line x1="206.697" y1="186.715" x2="356.546" y2="186.715" fill="none" stroke="#000000" stroke-width="1.07" stroke-linecap="butt"/><line x1="448.121" y1="267.265" x2="448.121" y2="106.166" fill="none" stroke="#000000" stroke-width="1.07" stroke-linecap="butt"/><line x1="373.196" y1="267.265" x2="523.046" y2="267.265" fill="none" stroke="#000000" stroke-width="1.07" stroke-linecap="butt"/><line x1="373.196" y1="106.166" x2="523.046" y2="106.166" fill="none" stroke="#000000" stroke-width="1.07" stroke-linecap="butt"/><line x1="614.62" y1="186.715" x2="614.62" y2="25.617" fill="none" stroke="#000000" stroke-width="1.07" stroke-linecap="butt"/><line x1="539.696" y1="186.715" x2="689.545" y2="186.715" fill="none" stroke="#000000" stroke-width="1.07" stroke-linecap="butt"/><line x1="539.696" y1="25.617" x2="689.545" y2="25.617" fill="none" stroke="#000000" stroke-width="1.07" stroke-linecap="butt"/></g>
<g><line x1="115.122" y1="448.5" x2="115.122" y2="451.25" fill="none" stroke="#333333" stroke-width="1.07" stroke-linecap="butt"/><text x="115.122" y="459.738" fill="#4d4d4d" font-size="8.8" textLength="4.893" lengthAdjust="spacingAndGlyphs" text-anchor="middle">1</text><line x1="281.622" y1="448.5" x2="281.622" y2="451.25" fill="none" stroke="#333333" stroke-width="1.07" stroke-linecap="butt"/><text x="281.622" y="459.738" fill="#4d4d4d" font-size="8.8" textLength="4.893" lengthAdjust="spacingAndGlyphs" text-anchor="middle">2</text><line x1="448.121" y1="448.5" x2="448.121" y2="451.25" fill="none" stroke="#333333" stroke-width="1.07" stroke-linecap="butt"/><text x="448.121" y="459.738" fill="#4d4d4d" font-size="8.8" textLength="4.893" lengthAdjust="spacingAndGlyphs" text-anchor="middle">3</text><line x1="614.62" y1="448.5" x2="614.62" y2="451.25" fill="none" stroke="#333333" stroke-width="1.07" stroke-linecap="butt"/><text x="614.62" y="459.738" fill="#4d4d4d" font-size="8.8" textLength="4.893" lengthAdjust="spacingAndGlyphs" text-anchor="middle">4</text><line x1="12.473" y1="347.814" x2="15.223" y2="347.814" fill="none" stroke="#333333" stroke-width="1.07" stroke-linecap="butt"/><text x="10.273" y="350.964" fill="#4d4d4d" font-size="8.8" textLength="4.893" lengthAdjust="spacingAndGlyphs" text-anchor="end">2</text><line x1="12.473" y1="186.715" x2="15.223" y2="186.715" fill="none" stroke="#333333" stroke-width="1.07" stroke-linecap="butt"/><text x="10.273" y="189.866" fill="#4d4d4d" font-size="8.8" textLength="4.893" lengthAdjust="spacingAndGlyphs" text-anchor="end">4</text><line x1="12.473" y1="25.617" x2="15.223" y2="25.617" fill="none" stroke="#333333" stroke-width="1.07" stroke-linecap="butt"/><text x="10.273" y="28.768" fill="#4d4d4d" font-size="8.8" textLength="4.893" lengthAdjust="spacingAndGlyphs" text-anchor="end">6</text></g>
<g><text x="364.871" y="472.2" fill="#4d4d4d" font-size="11" textLength="5.5" lengthAdjust="spacingAndGlyphs" text-anchor="middle">x</text></g>
</svg>
