<svg xmlns="http://www.w3.org/2000/svg" width="720" height="480" viewBox="0 0 720 480" font-family="Arial, Helvetica, sans-serif">
<rect x="0" y="0" width="720" height="480" fill="#ffffff"/>
<g><rect x="40.515" y="5.48" width="625.882" height="443.02" fill="#ebebeb"/></g>
<g><line x1="163.795" y1="5.48" x2="163.795" y2="448.5" fill="none" stroke="#ffffff" stroke-width="1.07" stroke-linecap="butt"/><line x1="321.846" y1="5.48" x2="321.846" y2="448.5" fill="none" stroke="#ffffff" stroke-width="1.07" stroke-linecap="butt"/><line x1="479.897" y1="5.48" x2="479.897" y2="448.5" fill="none" stroke="#ffffff" stroke-width="1.07" stroke-linecap="butt"/><line x1="637.948" y1="5.48" x2="637.948" y2="448.5" fill="none" stroke="#ffffff" stroke-width="1.07" stroke-linecap="butt"/><line x1="40.515" y1="361.238" x2="666.397" y2="361.238" fill="none" stroke="#ffffff" stroke-width="1.07" stroke-linecap="butt"/><line x1="40.515" y1="249.365" x2="666.397" y2="249.365" fill="none" stroke="#ffffff" stroke-width="1.07" stroke-linecap="butt"/><line x1="40.515" y1="137.491" x2="666.397" y2="137.491" fill="none" stroke="#ffffff" stroke-width="1.07" stroke-linecap="butt"/><line x1="40.515" y1="25.617" x2="666.397" y2="25.617" fill="none" stroke="#ffffff" stroke-width="1.07" stroke-linecap="butt"/><line x1="242.82" y1="5.48" x2="242.82" y2="448.5" fill="none" stroke="#ffffff" stroke-width="0.535" stroke-linecap="butt"/><line x1="400.871" y1="5.48" x2="400.871" y2="448.5" fill="none" stroke="#ffffff" stroke-width="0.535" stroke-linecap="butt"/><line x1="558.922" y1="5.48" x2="558.922" y2="448.5" fill="none" stroke="#ffffff" stroke-width="0.535" stroke-linecap="butt"/><line x1="40.515" y1="305.302" x2="666.397" y2="305.302" fill="none" stroke="#ffffff" stroke-width="0.535" stroke-linecap="butt"/><line x1="40.515" y1="193.428" x2="666.397" y2="193.428" fill="none" stroke="#ffffff" stroke-width="0.535" stroke-linecap="butt"/><line x1="40.515" y1="81.554" x2="666.397" y2="81.554" fill="none" stroke="#ffffff" stroke-width="0.535" stroke-linecap="butt"/></g>
<defs><clipPath id="clip2"><rect x="40.515" y="5.48" width="625.882" height="443.02"/></clipPath></defs><g clip-path="url(#clip2)"><polyline points="68.964,428.363 132.184,383.613 195.405,338.864 258.625,294.114 321.846,249.365 385.066,204.615 448.287,159.866 511.507,115.116 574.728,70.367 637.948,25.617" fill="none" stroke="#000000" stroke-width="1.07"/><polyline points="68.964,428.363 132.184,383.613 195.405,338.864 258.625,294.114 321.846,249.365 385.066,204.615 448.287,159.866 511.507,115.116 574.728,70.367 637.948,25.617" fill="none" stroke="#000000" stroke-width="1.07" stroke-dasharray="2.853,2.853" stroke-dashoffset="0"/><polyline points="68.964,428.363 132.184,383.613 195.405,338.864 258.625,294.114 321.846,249.365 385.066,204.615 448.287,159.866 511.507,115.116 574.728,70.367 637.948,25.617" fill="none" stroke="#000000" stroke-width="1.07" stroke-dasharray="5.707,2.853" stroke-dashoffset="0"/></g>
<g><line x1="163.795" y1="448.5" x2="163.795" y2="451.25" fill="none" stroke="#333333" stroke-width="1.07" stroke-linecap="butt"/><text x="163.795" y="459.738" fill="#4d4d4d" font-size="8.8" textLength="12.232" lengthAdjust="spacingAndGlyphs" text-anchor="middle">2.5</text><line x1="321.846" y1="448.5" x2="321.846" y2="451.25" fill="none" stroke="#333333" stroke-width="1.07" stroke-linecap="butt"/><text x="321.846" y="459.738" fill="#4d4d4d" font-size="8.8" textLength="12.232" lengthAdjust="spacingAndGlyphs" text-anchor="middle">5.0</text><line x1="479.897" y1="448.5" x2="479.897" y2="451.25" fill="none" stroke="#333333" stroke-width="1.07" stroke-linecap="butt"/><text x="479.897" y="459.738" fill="#4d4d4d" font-size="8.8" textLength="12.232" lengthAdjust="spacingAndGlyphs" text-anchor="middle">7.5</text><line x1="637.948" y1="448.5" x2="637.948" y2="451.25" fill="none" stroke="#333333" stroke-width="1.07" stroke-linecap="butt"/><text x="637.948" y="459.738" fill="#4d4d4d" font-size="8.8" textLength="17.125" lengthAdjust="spacingAndGlyphs" text-anchor="middle">10.0</text><line x1="37.765" y1="361.238" x2="40.515" y2="361.238" fill="none" stroke="#333333" stroke-width="1.07" stroke-linecap="butt"/><text x="35.565" y="364.389" fill="#4d4d4d" font-size="8.8" textLength="12.232" lengthAdjust="spacingAndGlyphs" text-anchor="end">2.5</text><line x1="37.765" y1="249.365" x2="40.515" y2="249.365" fill="none" stroke="#333333" stroke-width="1.07" stroke-linecap="butt"/><text x="35.565" y="252.515" fill="#4d4d4d" font-size="8.8" textLength="12.232" lengthAdjust="spacingAndGlyphs" text-anchor="end">5.0</text><line x1="37.765" y1="137.491" x2="40.515" y2="137.491" fill="none" stroke="#333333" stroke-width="1.07" stroke-linecap="butt"/><text x="35.565" y="140.641" fill="#4d4d4d" font-size="8.8" textLength="12.232" lengthAdjust="spacingAndGlyphs" text-anchor="end">7.5</text><line x1="37.765" y1="25.617" x2="40.515" y2="25.617" fill="none" stroke="#333333" stroke-width="1.07" stroke-linecap="butt"/><text x="35.565" y="28.768" fill="#4d4d4d" font-size="8.8" textLength="17.125" lengthAdjust="spacingAndGlyphs" text-anchor="end">10.0</text></g>
<g><text x="353.456" y="472.2" fill="#4d4d4d" font-size="11" textLength="6.116" lengthAdjust="spacingAndGlyphs" text-anchor="middle">x</text><text x="13.36" y="226.99" fill="#4d4d4d" font-size="11" textLength="6.116" lengthAdjust="spacingAndGlyphs" text-anchor="middle" transform="rotate(-90, 13.36, 226.99)">y</text></g>
<g><text x="687.826" y="204.41" fill="#000000" font-size="11" textLength="2.442" lengthAdjust="spacingAndGlyphs" text-anchor="start">l</text><line x1="681.047" y1="218.96" x2="697.047" y2="218.96" fill="none" stroke="#000000" stroke-width="1.07" stroke-linecap="butt"/><text x="704.147" y="222.11" fill="#000000" font-size="8.8" textLength="4.893" lengthAdjust="spacingAndGlyphs" text-anchor="start">a</text><line x1="681.047" y1="234.8" x2="697.047" y2="234.8" fill="none" stroke="#000000" stroke-width="1.07" stroke-linecap="butt"/><text x="704.147" y="237.95" fill="#000000" font-size="8.8" textLength="4.893" lengthAdjust="spacingAndGlyphs" text-anchor="start">b</text><line x1="681.047" y1="250.64" x2="697.047" y2="250.64" fill="none" stroke="#000000" stroke-width="1.07" stroke-linecap="butt"/><text x="704.147" y="253.79" fill="#000000" font-size="8.8" textLength="4.893" lengthAdjust="spacingAndGlyphs" text-anchor="start">c</text></g>
</svg>
