<svg xmlns="http://www.w3.org/2000/svg" width="720" height="480" viewBox="0 0 720 480" font-family="Arial, Helvetica, sans-serif">
<rect x="0" y="0" width="720" height="480" fill="#ffffff"/>
<g><rect x="28.283" y="5.48" width="686.237" height="443.02" fill="#ebebeb"/></g>
<g><line x1="121.861" y1="5.48" x2="121.861" y2="448.5" fill="none" stroke="#ffffff" stroke-width="1.07" stroke-linecap="butt"/><line x1="246.631" y1="5.48" x2="246.631" y2="448.5" fill="none" stroke="#ffffff" stroke-width="1.07" stroke-linecap="butt"/><line x1="371.401" y1="5.48" x2="371.401" y2="448.5" fill="none" stroke="#ffffff" stroke-width="1.07" stroke-linecap="butt"/><line x1="496.172" y1="5.48" x2="496.172" y2="448.5" fill="none" stroke="#ffffff" stroke-width="1.07" stroke-linecap="butt"/><line x1="620.942" y1="5.48" x2="620.942" y2="448.5" fill="none" stroke="#ffffff" stroke-width="1.07" stroke-linecap="butt"/><line x1="28.283" y1="378.02" x2="714.52" y2="378.02" fill="none" stroke="#ffffff" stroke-width="1.07" stroke-linecap="butt"/><line x1="28.283" y1="277.333" x2="714.52" y2="277.333" fill="none" stroke="#ffffff" stroke-width="1.07" stroke-linecap="butt"/><line x1="28.283" y1="176.647" x2="714.52" y2="176.647" fill="none" stroke="#ffffff" stroke-width="1.07" stroke-linecap="butt"/><line x1="28.283" y1="75.96" x2="714.52" y2="75.96" fill="none" stroke="#ffffff" stroke-width="1.07" stroke-linecap="butt"/><line x1="184.246" y1="5.48" x2="184.246" y2="448.5" fill="none" stroke="#ffffff" stroke-width="0.535" stroke-linecap="butt"/><line x1="309.016" y1="5.48" x2="309.016" y2="448.5" fill="none" stroke="#ffffff" stroke-width="0.535" stroke-linecap="butt"/><line x1="433.787" y1="5.48" x2="433.787" y2="448.5" fill="none" stroke="#ffffff" stroke-width="0.535" stroke-linecap="butt"/><line x1="558.557" y1="5.48" x2="558.557" y2="448.5" fill="none" stroke="#ffffff" stroke-width="0.535" stroke-linecap="butt"/><line x1="683.327" y1="5.48" x2="683.327" y2="448.5" fill="none" stroke="#ffffff" stroke-width="0.535" stroke-linecap="butt"/><line x1="28.283" y1="327.676" x2="714.52" y2="327.676" fill="none" stroke="#ffffff" stroke-width="0.535" stroke-linecap="butt"/><line x1="28.283" y1="226.99" x2="714.52" y2="226.99" fill="none" stroke="#ffffff" stroke-width="0.535" stroke-linecap="butt"/><line x1="28.283" y1="126.304" x2="714.52" y2="126.304" fill="none" stroke="#ffffff" stroke-width="0.535" stroke-linecap="butt"/><line x1="28.283" y1="25.617" x2="714.52" y2="25.617" fill="none" stroke="#ffffff" stroke-width="0.535" stroke-linecap="butt"/></g>
<defs><clipPath id="clip2"><rect x="28.283" y="5.48" width="686.237" height="443.02"/></clipPath></defs><g clip-path="url(#clip2)"><rect x="59.475" y="327.676" width="124.77" height="100.686" fill="#333333"/><rect x="184.246" y="327.676" width="124.77" height="100.686" fill="#333333"/><rect x="309.016" y="327.676" width="124.77" height="100.686" fill="#333333"/><rect x="433.787" y="327.676" width="124.77" height="100.686" fill="#333333"/><rect x="558.557" y="327.676" width="124.77" height="100.686" fill="#333333"/><rect x="59.475" y="226.99" width="124.77" height="100.686" fill="#333333"/><rect x="184.246" y="226.99" width="124.77" height="100.686" fill="#333333"/><rect x="309.016" y="226.99" width="124.77" height="100.686" fill="#333333"/><rect x="433.787" y="226.99" width="124.77" height="100.686" fill="#333333"/><rect x="558.557" y="226.99" width="124.77" height="100.686" fill="#333333"/><rect x="59.475" y="126.304" width="124.77" height="100.686" fill="#333333"/><rect x="184.246" y="126.304" width="124.77" height="100.686" fill="#333333"/><rect x="309.016" y="126.304" width="124.77" height="100.686" fill="#333333"/><rect x="433.787" y="126.304" width="124.77" height="100.686" fill="#333333"/><rect x="558.557" y="126.304" width="124.77" height="100.686" fill="#333333"/><rect x="59.475" y="25.617" width="124.77" height="100.686" fill="#333333"/><rect x="184.246" y="25.617" width="124.77" height="100.686" fill="#333333"/><rect x="309.016" y="25.617" width="124.77" height="100.686" fill="#333333"/><rect x="433.787" y="25.617" width="124.77" height="100.686" fill="#333333"/><rect x="558.557" y="25.617" width="124.77" height="100.686" fill="#333333"/></g>
<g><line x1="121.861" y1="448.5" x2="121.861" y2="451.25" fill="none" stroke="#333333" stroke-width="1.07" stroke-linecap="butt"/><text x="121.861" y="459.738" fill="#4d4d4d" font-size="8.8" textLength="4.893" lengthAdjust="spacingAndGlyphs" text-anchor="middle">1</text><line x1="246.631" y1="448.5" x2="246.631" y2="451.25" fill="none" stroke="#333333" stroke-width="1.07" stroke-linecap="butt"/><text x="246.631" y="459.738" fill="#4d4d4d" font-size="8.8" textLength="4.893" lengthAdjust="spacingAndGlyphs" text-anchor="middle">2</text><line x1="371.401" y1="448.5" x2="371.401" y2="451.25" fill="none" stroke="#333333" stroke-width="1.07" stroke-linecap="butt"/><text x="371.401" y="459.738" fill="#4d4d4d" font-size="8.8" textLength="4.893" lengthAdjust="spacingAndGlyphs" text-anchor="middle">3</text><line x1="496.172" y1="448.5" x2="496.172" y2="451.25" fill="none" stroke="#333333" stroke-width="1.07" stroke-linecap="butt"/><text x="496.172" y="459.738" fill="#4d4d4d" font-size="8.8" textLength="4.893" lengthAdjust="spacingAndGlyphs" text-anchor="middle">4</text><line x1="620.942" y1="448.5" x2="620.942" y2="451.25" fill="none" stroke="#333333" stroke-width="1.07" stroke-linecap="butt"/><text x="620.942" y="459.738" fill="#4d4d4d" font-size="8.8" textLength="4.893" lengthAdjust="spacingAndGlyphs" text-anchor="middle">5</text><line x1="25.533" y1="378.02" x2="28.283" y2="378.02" fill="none" stroke="#333333" stroke-width="1.07" stroke-linecap="butt"/><text x="23.333" y="381.17" fill="#4d4d4d" font-size="8.8" textLength="4.893" lengthAdjust="spacingAndGlyphs" text-anchor="end">1</text><line x1="25.533" y1="277.333" x2="28.283" y2="277.333" fill="none" stroke="#333333" stroke-width="1.07" stroke-linecap="butt"/><text x="23.333" y="280.484" fill="#4d4d4d" font-size="8.8" textLength="4.893" lengthAdjust="spacingAndGlyphs" text-anchor="end">2</text><line x1="25.533" y1="176.647" x2="28.283" y2="176.647" fill="none" stroke="#333333" stroke-width="1.07" stroke-linecap="butt"/><text x="23.333" y="179.797" fill="#4d4d4d" font-size="8.8" textLength="4.893" lengthAdjust="spacingAndGlyphs" text-anchor="end">3</text><line x1="25.533" y1="75.96" x2="28.283" y2="75.96" fill="none" stroke="#333333" stroke-width="1.07" stroke-linecap="butt"/><text x="23.333" y="79.111" fill="#4d4d4d" font-size="8.8" textLength="4.893" lengthAdjust="spacingAndGlyphs" text-anchor="end">4</text></g>
<g><text x="371.401" y="472.2" fill="#4d4d4d" font-size="11" textLength="5.5" lengthAdjust="spacingAndGlyphs" text-anchor="middle">x</text><text x="13.36" y="226.99" fill="#4d4d4d" font-size="11" textLength="5.5" lengthAdjust="spacingAndGlyphs" text-anchor="middle" transform="rotate(-90, 13.36, 226.99)">y</text></g>
</svg>
