<svg xmlns="http://www.w3.org/2000/svg" width="720" height="480" viewBox="0 0 720 480" font-family="Arial, Helvetica, sans-serif">
<rect x="0" y="0" width="720" height="480" fill="#ffffff"/>
<g><rect x="28.283" y="5.48" width="686.237" height="443.02" fill="#ebebeb"/></g>
<g><line x1="59.475" y1="5.48" x2="59.475" y2="448.5" fill="none" stroke="#ffffff" stroke-width="1.07" stroke-linecap="butt"/><line x1="267.426" y1="5.48" x2="267.426" y2="448.5" fill="none" stroke="#ffffff" stroke-width="1.07" stroke-linecap="butt"/><line x1="475.377" y1="5.48" x2="475.377" y2="448.5" fill="none" stroke="#ffffff" stroke-width="1.07" stroke-linecap="butt"/><line x1="683.327" y1="5.48" x2="683.327" y2="448.5" fill="none" stroke="#ffffff" stroke-width="1.07" stroke-linecap="butt"/><line x1="28.283" y1="347.814" x2="714.52" y2="347.814" fill="none" stroke="#ffffff" stroke-width="1.07" stroke-linecap="butt"/><line x1="28.283" y1="186.715" x2="714.52" y2="186.715" fill="none" stroke="#ffffff" stroke-width="1.07" stroke-linecap="butt"/><line x1="28.283" y1="25.617" x2="714.52" y2="25.617" fill="none" stroke="#ffffff" stroke-width="1.07" stroke-linecap="butt"/><line x1="163.451" y1="5.48" x2="163.451" y2="448.5" fill="none" stroke="#ffffff" stroke-width="0.535" stroke-linecap="butt"/><line x1="371.401" y1="5.48" x2="371.401" y2="448.5" fill="none" stroke="#ffffff" stroke-width="0.535" stroke-linecap="butt"/><line x1="579.352" y1="5.48" x2="579.352" y2="448.5" fill="none" stroke="#ffffff" stroke-width="0.535" stroke-linecap="butt"/><line x1="28.283" y1="267.265" x2="714.52" y2="267.265" fill="none" stroke="#ffffff" stroke-width="0.535" stroke-linecap="butt"/><line x1="28.283" y1="106.166" x2="714.52" y2="106.166" fill="none" stroke="#ffffff" stroke-width="0.535" stroke-linecap="butt"/></g>
<defs><clipPath id="clip2"><rect x="28.283" y="5.48" width="686.237" height="443.02"/></clipPath></defs><g clip-path="url(#clip2)"><line x1="59.475" y1="428.363" x2="59.475" y2="267.265" fill="none" stroke="#000000" stroke-width="1.07" stroke-linecap="butt"/><line x1="267.426" y1="267.265" x2="267.426" y2="106.166" fill="none" stroke="#000000" stroke-width="1.07" stroke-linecap="butt"/><line x1="475.377" y1="347.814" x2="475.377" y2="186.715" fill="none" stroke="#000000" stroke-width="1.07" stroke-linecap="butt"/><line x1="683.327" y1="186.715" x2="683.327" y2="25.617" fill="none" stroke="#000000" stroke-width="1.07" stroke-linecap="butt"/><circle cx="59.475" cy="347.814" r="1.955" fill="#000000"/><circle cx="267.426" cy="186.715" r="1.955" fill="#000000"/><circle cx="475.377" cy="267.265" r="1.955" fill="#000000"/><circle cx="683.327" cy="106.166" r="1.955" fill="#000000"/></g>
<g><line x1="59.475" y1="448.5" x2="59.475" y2="451.25" fill="none" stroke="#333333" stroke-width="1.07" stroke-linecap="butt"/><text x="59.475" y="459.738" fill="#4d4d4d" font-size="8.8" textLength="4.893" lengthAdjust="spacingAndGlyphs" text-anchor="middle">1</text><line x1="267.426" y1="448.5" x2="267.426" y2="451.25" fill="none" stroke="#333333" stroke-width="1.07" stroke-linecap="butt"/><text x="267.426" y="459.738" fill="#4d4d4d" font-size="8.8" textLength="4.893" lengthAdjust="spacingAndGlyphs" text-anchor="middle">2</text><line x1="475.377" y1="448.5" x2="475.377" y2="451.25" fill="none" stroke="#333333" stroke-width="1.07" stroke-linecap="butt"/><text x="475.377" y="459.738" fill="#4d4d4d" font-size="8.8" textLength="4.893" lengthAdjust="spacingAndGlyphs" text-anchor="middle">3</text><line x1="683.327" y1="448.5" x2="683.327" y2="451.25" fill="none" stroke="#333333" stroke-width="1.07" stroke-linecap="butt"/><text x="683.327" y="459.738" fill="#4d4d4d" font-size="8.8" textLength="4.893" lengthAdjust="spacingAndGlyphs" text-anchor="middle">4</text><line x1="25.533" y1="347.814" x2="28.283" y2="347.814" fill="none" stroke="#333333" stroke-width="1.07" stroke-linecap="butt"/><text x="23.333" y="350.964" fill="#4d4d4d" font-size="8.8" textLength="4.893" lengthAdjust="spacingAndGlyphs" text-anchor="end">2</text><line x1="25.533" y1="186.715" x2="28.283" y2="186.715" fill="none" stroke="#333333" stroke-width="1.07" stroke-linecap="butt"/><text x="23.333" y="189.866" fill="#4d4d4d" font-size="8.8" textLength="4.893" lengthAdjust="spacingAndGlyphs" text-anchor="end">4</text><line x1="25.533" y1="25.617" x2="28.283" y2="25.617" fill="none" stroke="#333333" stroke-width="1.07" stroke-linecap="butt"/><text x="23.333" y="28.768" fill="#4d4d4d" font-size="8.8" textLength="4.893" lengthAdjust="spacingAndGlyphs" text-anchor="end">6</text></g>
<g><text x="371.401" y="472.2" fill="#4d4d4d" font-size="11" textLength="6.116" lengthAdjust="spacingAndGlyphs" text-anchor="middle">x</text><text x="13.36" y="226.99" fill="#4d4d4d" font-size="11" textLength="6.116" lengthAdjust="spacingAndGlyphs" text-anchor="middle" transform="rotate(-90, 13.36, 226.99)">y</text></g>
</svg>
