<svg xmlns="http://www.w3.org/2000/svg" width="720" height="480" viewBox="0 0 720 480" font-family="Arial, Helvetica, sans-serif">
<rect x="0" y="0" width="720" height="480" fill="#ffffff"/>
<g><rect x="40.515" y="5.48" width="625.882" height="443.02" fill="#ebebeb"/></g>
<g><line x1="157.868" y1="5.48" x2="157.868" y2="448.5" fill="none" stroke="#ffffff" stroke-width="1.07" stroke-linecap="butt"/><line x1="353.456" y1="5.48" x2="353.456" y2="448.5" fill="none" stroke="#ffffff" stroke-width="1.07" stroke-linecap="butt"/><line x1="549.044" y1="5.48" x2="549.044" y2="448.5" fill="none" stroke="#ffffff" stroke-width="1.07" stroke-linecap="butt"/><line x1="40.515" y1="428.363" x2="666.397" y2="428.363" fill="none" stroke="#ffffff" stroke-width="1.07" stroke-linecap="butt"/><line x1="40.515" y1="344.457" x2="666.397" y2="344.457" fill="none" stroke="#ffffff" stroke-width="1.07" stroke-linecap="butt"/><line x1="40.515" y1="260.552" x2="666.397" y2="260.552" fill="none" stroke="#ffffff" stroke-width="1.07" stroke-linecap="butt"/><line x1="40.515" y1="176.647" x2="666.397" y2="176.647" fill="none" stroke="#ffffff" stroke-width="1.07" stroke-linecap="butt"/><line x1="40.515" y1="92.742" x2="666.397" y2="92.742" fill="none" stroke="#ffffff" stroke-width="1.07" stroke-linecap="butt"/><line x1="40.515" y1="8.836" x2="666.397" y2="8.836" fill="none" stroke="#ffffff" stroke-width="1.07" stroke-linecap="butt"/><line x1="40.515" y1="386.41" x2="666.397" y2="386.41" fill="none" stroke="#ffffff" stroke-width="0.535" stroke-linecap="butt"/><line x1="40.515" y1="302.505" x2="666.397" y2="302.505" fill="none" stroke="#ffffff" stroke-width="0.535" stroke-linecap="butt"/><line x1="40.515" y1="218.599" x2="666.397" y2="218.599" fill="none" stroke="#ffffff" stroke-width="0.535" stroke-linecap="butt"/><line x1="40.515" y1="134.694" x2="666.397" y2="134.694" fill="none" stroke="#ffffff" stroke-width="0.535" stroke-linecap="butt"/><line x1="40.515" y1="50.789" x2="666.397" y2="50.789" fill="none" stroke="#ffffff" stroke-width="0.535" stroke-linecap="butt"/></g>
<defs><clipPath id="clip2"><rect x="40.515" y="5.48" width="625.882" height="443.02"/></clipPath></defs><g clip-path="url(#clip2)"><rect x="353.456" y="327.676" width="88.015" height="100.686" fill="#cccccc"/><rect x="157.868" y="159.866" width="88.015" height="268.497" fill="#cccccc"/><rect x="265.441" y="294.114" width="88.015" height="134.248" fill="#333333"/><rect x="461.03" y="25.617" width="88.015" height="402.745" fill="#333333"/><rect x="69.853" y="327.676" width="88.015" height="100.686" fill="#333333"/><rect x="549.044" y="361.238" width="88.015" height="67.124" fill="#cccccc"/></g>
<g><line x1="157.868" y1="448.5" x2="157.868" y2="451.25" fill="none" stroke="#333333" stroke-width="1.07" stroke-linecap="butt"/><text x="157.868" y="459.738" fill="#4d4d4d" font-size="8.8" textLength="4.893" lengthAdjust="spacingAndGlyphs" text-anchor="middle">4</text><line x1="353.456" y1="448.5" x2="353.456" y2="451.25" fill="none" stroke="#333333" stroke-width="1.07" stroke-linecap="butt"/><text x="353.456" y="459.738" fill="#4d4d4d" font-size="8.8" textLength="4.893" lengthAdjust="spacingAndGlyphs" text-anchor="middle">6</text><line x1="549.044" y1="448.5" x2="549.044" y2="451.25" fill="none" stroke="#333333" stroke-width="1.07" stroke-linecap="butt"/><text x="549.044" y="459.738" fill="#4d4d4d" font-size="8.8" textLength="4.893" lengthAdjust="spacingAndGlyphs" text-anchor="middle">8</text><line x1="37.765" y1="428.363" x2="40.515" y2="428.363" fill="none" stroke="#333333" stroke-width="1.07" stroke-linecap="butt"/><text x="35.565" y="431.513" fill="#4d4d4d" font-size="8.8" textLength="12.232" lengthAdjust="spacingAndGlyphs" text-anchor="end">0.0</text><line x1="37.765" y1="344.457" x2="40.515" y2="344.457" fill="none" stroke="#333333" stroke-width="1.07" stroke-linecap="butt"/><text x="35.565" y="347.608" fill="#4d4d4d" font-size="8.8" textLength="12.232" lengthAdjust="spacingAndGlyphs" text-anchor="end">2.5</text><line x1="37.765" y1="260.552" x2="40.515" y2="260.552" fill="none" stroke="#333333" stroke-width="1.07" stroke-linecap="butt"/><text x="35.565" y="263.703" fill="#4d4d4d" font-size="8.8" textLength="12.232" lengthAdjust="spacingAndGlyphs" text-anchor="end">5.0</text><line x1="37.765" y1="176.647" x2="40.515" y2="176.647" fill="none" stroke="#333333" stroke-width="1.07" stroke-linecap="butt"/><text x="35.565" y="179.797" fill="#4d4d4d" font-size="8.8" textLength="12.232" lengthAdjust="spacingAndGlyphs" text-anchor="end">7.5</text><line x1="37.765" y1="92.742" x2="40.515" y2="92.742" fill="none" stroke="#333333" stroke-width="1.07" stroke-linecap="butt"/><text x="35.565" y="95.892" fill="#4d4d4d" font-size="8.8" textLength="17.125" lengthAdjust="spacingAndGlyphs" text-anchor="end">10.0</text><line x1="37.765" y1="8.836" x2="40.515" y2="8.836" fill="none" stroke="#333333" stroke-width="1.07" stroke-linecap="butt"/><text x="35.565" y="11.987" fill="#4d4d4d" font-size="8.8" textLength="17.125" lengthAdjust="spacingAndGlyphs" text-anchor="end">12.5</text></g>
<g><text x="353.456" y="472.2" fill="#4d4d4d" font-size="11" textLength="13.442" lengthAdjust="spacingAndGlyphs" text-anchor="middle">cyl</text><text x="13.36" y="226.99" fill="#4d4d4d" font-size="11" textLength="26.906" lengthAdjust="spacingAndGlyphs" text-anchor="middle" transform="rotate(-90, 13.36, 226.99)">count</text></g>
<g><text x="681.408" y="212.33" fill="#000000" font-size="11" textLength="15.279" lengthAdjust="spacingAndGlyphs" text-anchor="start">am</text><rect x="681.047" y="218.88" width="16" height="16" fill="#333333"/><text x="704.147" y="230.03" fill="#000000" font-size="8.8" textLength="4.893" lengthAdjust="spacingAndGlyphs" text-anchor="start">0</text><rect x="681.047" y="234.72" width="16" height="16" fill="#cccccc"/><text x="704.147" y="245.87" fill="#000000" font-size="8.8" textLength="4.893" lengthAdjust="spacingAndGlyphs" text-anchor="start">1</text></g>
</svg>
